<svg viewBox="0 0 946 643" fill="none" xmlns="http://www.w3.org/2000/svg" preserveAspectRatio='none'>
<path opacity="0.1" d="M549.632 104.814C488.986 102.687 431.23 83.0528 376.11 61.5476C320.99 40.0424 266.322 16.2128 207.129 4.8214C169.014 -2.50636 125.471 -3.5367 94.7948 16.9629C65.2765 36.6794 55.7353 70.7217 50.6117 102.299C46.7526 126.063 44.4863 151.08 55.0538 173.319C62.3944 188.765 75.4252 201.748 84.4408 216.543C115.823 268.011 93.6535 331.488 59.652 381.751C43.7063 405.326 25.2152 427.82 12.9152 452.919C0.61524 478.018 -5.07494 506.777 5.68961 532.378C16.3638 557.749 41.7767 576.815 69.3163 590.217C125.249 617.418 191.159 625.241 255.426 629.659C397.697 639.426 540.723 635.198 683.372 630.961C736.16 629.395 789.187 627.804 841.113 619.611C869.958 615.061 899.731 607.84 920.669 590.399C947.247 568.267 953.833 530.788 936.023 503.026C906.152 456.471 823.533 444.915 802.669 394.948C791.174 367.45 802.981 336.812 819.682 311.309C855.515 256.594 915.57 208.597 918.739 146.052C920.907 103.099 892.037 60.0887 847.394 39.721C800.592 18.4218 735.725 21.1007 701.198 56.363C665.653 92.7132 603.184 106.685 549.632 104.814Z" fill="#630000"/>
<path d="M293.292 30.6135L371.277 59.5042" stroke="#8C0000" stroke-linecap="round"/>
<path d="M852.757 618.622C852.757 618.622 878.187 616.923 900.227 605.026C922.266 593.13 934.134 576.136 934.134 576.136" stroke="#8C0000" stroke-width="2" stroke-linecap="round"/>
<path d="M919.316 137.651C919.316 137.651 916.643 112.677 905.006 90.5C893.369 68.3227 872.006 54.5 872.006 54.5" stroke="#8C0000" stroke-width="2" stroke-linecap="round"/>
<path d="M95 306C95 306 100.247 288 98.5 257.5C96.7532 227 79 208.5 79 208.5" stroke="#8C0000" stroke-width="2" stroke-linecap="round"/>
</svg>